<?xml version="1.0"?>
<svg id="Camada_1" data-name="Camada 1" xmlns="http://www.w3.org/2000/svg" viewBox="0 0 407.4 259.29">
  <style>.cls-1{fill:#A6E43C}</style>
  
  <path class="cls-1" d="M334.09,8.06c.34,46.17,28.3,85.25,66.92,98.73v39.11c-10.29,3.59-19.82,9-28.27,15.87-23.29,18.93-38.4,48.99-38.65,82.86h-26.68c.21-37.4,14.58-71.14,37.58-95.26,7.6-7.96,16.13-14.88,25.41-20.53.99-.6,1.98-1.19,2.99-1.76l1.29-.74-1.29-.74c-1-.57-2-1.16-2.99-1.76h0c-37.37-22.75-62.7-66.03-62.99-115.78h26.68ZM255.23,8.06c.34,46.17,28.3,85.25,66.92,98.73v39.11c-10.29,3.59-19.82,9-28.27,15.87-23.29,18.93-38.4,48.99-38.65,82.86h-26.68c.21-37.4,14.58-71.14,37.58-95.26,7.6-7.96,16.13-14.88,25.41-20.53l.12-.08c.95-.58,1.9-1.14,2.87-1.69l1.29-.74-1.29-.74c-1-.57-2-1.16-2.99-1.76h0s-1.75-1.09-1.75-1.09c-36.4-23.03-60.96-65.73-61.24-114.7h26.68ZM176.37,8.06c.34,46.17,28.3,85.25,66.92,98.73v39.11c-10.29,3.59-19.82,9-28.27,15.87-23.29,18.93-38.4,48.99-38.65,82.86h-26.68c.21-37.4,14.59-71.14,37.58-95.26h0c7.6-7.96,16.13-14.88,25.41-20.53l.15-.09c.94-.57,1.88-1.13,2.84-1.67l1.29-.74-1.3-.74c-1-.57-2-1.16-2.99-1.76h0c-37.37-22.75-62.7-66.03-62.99-115.78h26.68ZM133.65,8.05c-.29,49.75-25.63,93.03-62.99,115.78h0c-.99.6-1.98,1.19-2.99,1.76l-1.29.74,1.29.74c1,.57,2,1.16,2.99,1.76h0c9.28,5.65,17.82,12.57,25.41,20.53h0c23,24.12,37.37,57.86,37.58,95.25h-26.68c-.25-33.87-15.36-63.93-38.65-82.86-8.45-6.88-17.99-12.28-28.27-15.87v-39.11c38.63-13.48,66.58-52.56,66.92-98.73h26.68ZM6.38,171.73c36.26.49,65.68,32.29,66.1,71.75h-26.88c-.41-23.18-17.68-42-39.21-42.48v-29.27ZM72.48,8.05c-.42,39.46-29.83,71.26-66.1,71.75v-29.27c21.54-.48,38.8-19.3,39.21-42.48h26.88Z"></path>
</svg>